# xmcd
#
# Track frame offsets: 
#        150
#        17362
#        47619
#        65180
#        80554
#        97620
#        121878
#        139460
#        157906
#
# Disc length: 2297 seconds
#
# Revision: 0
# Processed by: cddbd v1.5.2PL0 Copyright (c) Steve Scherf et al.
# Submitted via: ExactAudioCopy v0.99pb4
#
DISCID=6a08f709
DTITLE=Emerson Caruso - Blues Follows Me
DYEAR=2009
DGENRE=Blues
TTITLE0=I Wanna Live My Life
TTITLE1=Endless Road Back Home
TTITLE2=Sleepwalking Blues
TTITLE3=Caruso's Boogie
TTITLE4=Ain't No Woman Like You
TTITLE5=You Made My Heart So Blue
TTITLE6=Singin' an Old Blues
TTITLE7=Mad Dog Blues
TTITLE8=Blues Follows Me
EXTD=
EXTT0=
EXTT1=
EXTT2=
EXTT3=
EXTT4=
EXTT5=
EXTT6=
EXTT7=
EXTT8=
PLAYORDER=
